<svg xmlns="http://www.w3.org/2000/svg" viewBox="0 0 320 60" fill="none">
  <!-- Mini gancho -->
  <path d="M28 5 C28 1, 31 -1, 34 2 C35.5 3.5, 35.5 6, 34 7.5" 
        stroke="#c5b4a5" stroke-width="2" fill="none" stroke-linecap="round"/>
  <path d="M28 7.5 L28 14" stroke="#c5b4a5" stroke-width="2" stroke-linecap="round"/>
  <line x1="16" y1="14" x2="40" y2="14" stroke="#c5b4a5" stroke-width="2" stroke-linecap="round"/>
  
  <!-- Mini tela -->
  <path d="M16 14 Q22 28, 28 32 Q34 28, 40 14" 
        stroke="#c5b4a5" stroke-width="1.5" fill="none" opacity="0.6"/>
  <path d="M18 14 Q24 26, 28 29 Q32 26, 38 14" 
        fill="#c5b4a5" opacity="0.2"/>
  <path d="M16 15 C14 20, 12 28, 15 26 C18 24, 22 18, 24 15" 
        fill="#c5b4a5" opacity="0.3"/>
  <path d="M40 15 C42 20, 44 28, 41 26 C38 24, 34 18, 32 15" 
        fill="#c5b4a5" opacity="0.3"/>

  <!-- M -->
  <text x="58" y="42" font-family="Georgia, 'Times New Roman', serif" font-size="42" font-weight="400" fill="#e8e0d6">M</text>
  
  <!-- & -->
  <text x="100" y="40" font-family="Georgia, 'Times New Roman', serif" font-size="30" font-style="italic" font-weight="400" fill="#c5b4a5">&amp;</text>
  
  <!-- X -->
  <text x="128" y="42" font-family="Georgia, 'Times New Roman', serif" font-size="42" font-weight="400" fill="#e8e0d6">X</text>
  
  <!-- STUDIO -->
  <text x="180" y="38" font-family="Georgia, 'Times New Roman', serif" font-size="16" font-weight="400" fill="#a09689" letter-spacing="8">STUDIO</text>
</svg>
